#N canvas 309 98 732 541 10;
#X declare -path ../../../dbm/library/dancing-bone-machine/pd/externals/bin
;
#X declare -path ../dbm;
#X obj -687 124 stripnote;
#X obj -687 152 mtof;
#X obj -715 479 dac~;
#X obj -563 428 loadbang;
#X obj -500 223 / 127;
#X obj -500 334 pack f f;
#X obj -455 285 loadbang;
#X obj -500 360 line~;
#X msg -487 309 0;
#X obj -715 397 *~;
#X msg -455 309 0.1;
#X obj -563 479 tabwrite~ graph1;
#X text -464 86 <-- Midi note in;
#X text -490 123 <-- Get rid of notes with velocity == 0;
#X text -490 152 <-- Calculate frequency from midi note;
#X text -489 187 <-- Sinusoidal oscillator;
#X text -457 221 <-- Calculate amplitude from midi velocity;
#X text -458 358 <-- Use a 0.1 millisecond ramp for amplitude changes.
Prevents audible click.;
#X text -682 478 <-- Sound output;
#X text -747 52 <-- Establish connection with web browser;
#X obj -682 313 receive volume;
#X obj -715 351 *~ 0.5;
#X text -789 350 Volume -->;
#X obj -715 198 oscillator;
#X obj -803 155 receive waveform;
#X msg -654 152 bang;
#X msg -498 426 bang;
#X obj -562 503 table graph1 512;
#X obj -563 453 metro 100;
#X text -457 478 <-- Save output to table every 100 milliseconds;
#X obj -815 53 dbm-connect;
#X obj -528 88 dbm-notein;
#X obj -815 11 declare -path ../../../dbm/library/dancing-bone-machine/pd/externals/bin
;
#X obj -459 11 declare -path ../dbm;
#X connect 0 0 1 0;
#X connect 0 0 25 0;
#X connect 1 0 23 1;
#X connect 3 0 28 0;
#X connect 3 0 28 0;
#X connect 4 0 5 0;
#X connect 5 0 7 0;
#X connect 6 0 10 0;
#X connect 6 0 8 0;
#X connect 7 0 9 1;
#X connect 8 0 5 0;
#X connect 9 0 2 0;
#X connect 9 0 2 1;
#X connect 9 0 11 0;
#X connect 10 0 5 1;
#X connect 20 0 21 1;
#X connect 21 0 9 0;
#X connect 23 0 21 0;
#X connect 24 0 23 0;
#X connect 25 0 23 2;
#X connect 26 0 28 0;
#X connect 28 0 11 0;
#X connect 31 0 0 0;
#X connect 31 1 0 1;
#X connect 31 1 4 0;
